# 3ds Max Wavefront OBJ Exporter v0.97b - (c)2007 guruware
# File Created: 02.12.2019 21:07:15

mtllib glass.mtl

#
# object Cylinder006
#

v  5388.8779 0.0000 5243.4038
v  5156.5513 0.0000 3925.8149
v  5156.5513 4598.1294 3925.8149
v  5388.8779 4598.1294 5243.4038
v  4487.5938 0.0000 2767.1462
v  4487.5938 4598.1294 2767.1462
v  3462.6914 0.0000 1907.1511
v  3462.6914 4598.1294 1907.1511
v  293.8845 0.0000 1658.3538
v  -389.6815 0.0000 1907.1514
v  -389.6815 4598.1294 1907.1514
v  293.8846 4598.1294 1658.3533
v  -1414.5837 0.0000 2767.1462
v  -1414.5837 4598.1294 2767.1462
v  -2083.5410 0.0000 3925.8145
v  -2083.5410 4598.1294 3925.8145
v  -2315.8674 0.0000 5243.4033
v  -2315.8674 4598.1294 5243.4033
v  -2083.5413 0.0000 6560.9922
v  -2083.5413 4598.1294 6560.9922
v  -1414.5842 0.0000 7719.6602
v  -1414.5842 4598.1294 7719.6602
v  -389.6824 0.0000 8579.6553
v  -389.6824 4598.1294 8579.6553
v  867.5460 0.0000 9037.2500
v  867.5460 4598.1294 9037.2500
v  2205.4607 0.0000 9037.2510
v  2205.4607 4598.1294 9037.2510
v  3462.6895 0.0000 8579.6582
v  3462.6895 4598.1294 8579.6582
v  4487.5918 0.0000 7719.6631
v  4487.5918 4598.1294 7719.6631
v  5156.5503 0.0000 6560.9951
v  5156.5503 4598.1294 6560.9951
v  293.8846 0.0000 2172.9849
v  2760.4236 0.0000 1651.5466
v  2760.4233 0.0000 2172.9849
v  2760.4233 4598.1294 1651.5466
v  293.8846 4598.1289 2172.9846
v  2760.4233 4598.1289 2172.9849
# 40 vertices

vn 1.0000 0.0000 0.0000
vn 0.9397 0.0000 -0.3420
vn 0.7660 0.0000 -0.6428
vn 0.5000 0.0000 -0.8660
vn -0.3420 -0.0000 -0.9397
vn -0.5000 0.0000 -0.8660
vn -0.5000 -0.0000 -0.8660
vn -0.7660 0.0000 -0.6428
vn -0.9397 0.0000 -0.3420
vn -1.0000 0.0000 -0.0000
vn -0.9397 0.0000 0.3420
vn -0.7660 0.0000 0.6428
vn -0.5000 0.0000 0.8660
vn -0.1736 0.0000 0.9848
vn 0.1736 0.0000 0.9848
vn 0.5000 0.0000 0.8660
vn 0.7660 0.0000 0.6428
vn 0.9397 0.0000 0.3420
vn 0.0000 -1.0000 -0.0000
vn 0.3420 0.0000 -0.9397
vn 0.0000 1.0000 -0.0000
vn 0.0000 1.0000 0.0000
vn -0.0000 1.0000 0.0000
vn -0.0000 1.0000 -0.0000
vn 1.0000 -0.0000 -0.0000
vn 1.0000 0.0000 -0.0000
vn 0.0000 -0.0000 -1.0000
vn 0.0000 0.0000 -1.0000
vn -1.0000 -0.0000 -0.0000
# 29 vertex normals

vt 0.7500 0.0000 1.0000
vt 0.8056 0.0000 1.0000
vt 0.8056 1.0000 1.0000
vt 0.7500 1.0000 1.0000
vt 0.8611 0.0000 1.0000
vt 0.8611 1.0000 1.0000
vt 0.9167 0.0000 1.0000
vt 0.9167 1.0000 1.0000
vt 0.0531 0.0000 1.0000
vt 0.0833 0.0000 1.0000
vt 0.0833 1.0000 1.0000
vt 0.0531 1.0000 1.0000
vt 0.1389 0.0000 1.0000
vt 0.1389 1.0000 1.0000
vt 0.1944 0.0000 1.0000
vt 0.1944 1.0000 1.0000
vt 0.2500 0.0000 1.0000
vt 0.2500 1.0000 1.0000
vt 0.3056 0.0000 1.0000
vt 0.3056 1.0000 1.0000
vt 0.3611 0.0000 1.0000
vt 0.3611 1.0000 1.0000
vt 0.4167 0.0000 1.0000
vt 0.4167 1.0000 1.0000
vt 0.4722 0.0000 1.0000
vt 0.4722 1.0000 1.0000
vt 0.5278 0.0000 1.0000
vt 0.5278 1.0000 1.0000
vt 0.5833 0.0000 1.0000
vt 0.5833 1.0000 1.0000
vt 0.6389 0.0000 1.0000
vt 0.6389 1.0000 1.0000
vt 0.6944 0.0000 1.0000
vt 0.6944 1.0000 1.0000
vt 0.8214 0.8830 -0.2500
vt 0.9330 0.7500 -0.2500
vt 0.9924 0.5868 -0.2500
vt 0.5000 1.0000 -0.2500
vt 0.9924 0.4132 -0.2500
vt 0.9330 0.2500 -0.2500
vt 0.6710 0.0302 -0.2500
vt 0.8214 0.1170 -0.2500
vt 0.5000 0.0000 -0.2500
vt 0.3290 0.0302 -0.2500
vt 0.1015 0.3387 -0.2500
vt 0.1786 0.1170 -0.2500
vt 0.0670 0.2500 -0.2500
vt 0.0347 0.3387 -0.2500
vt 0.0338 0.6589 -0.2500
vt 0.0670 0.7500 -0.2500
vt 0.1786 0.8830 -0.2500
vt 0.1015 0.6589 -0.2500
vt 0.3290 0.9698 -0.2500
vt 0.6710 0.9698 -0.2500
vt 0.9477 0.0000 1.0000
vt 0.9477 1.0000 1.0000
vt 0.1015 0.3387 0.2500
vt 0.0347 0.3387 0.2500
vt 0.0670 0.2500 0.2500
vt 0.1786 0.1170 0.2500
vt 0.1015 0.6589 0.2500
vt 0.5000 0.0000 0.2500
vt 0.3290 0.0302 0.2500
vt 0.6710 0.0302 0.2500
vt 0.8214 0.1170 0.2500
vt 0.9924 0.4132 0.2500
vt 0.9330 0.2500 0.2500
vt 0.6710 0.9698 0.2500
vt 0.9924 0.5868 0.2500
vt 0.9330 0.7500 0.2500
vt 0.8214 0.8830 0.2500
vt 0.5000 1.0000 0.2500
vt 0.3290 0.9698 0.2500
vt 0.1786 0.8830 0.2500
vt 0.0670 0.7500 0.2500
vt 0.0338 0.6589 0.2500
vt 1.0000 0.0000 0.0000
vt 0.5882 0.0000 0.0000
vt 0.5882 0.6929 0.0000
vt 1.0000 0.6929 0.0000
vt 0.0000 0.0000 0.0000
vt 0.0000 0.6929 0.0000
vt 0.4172 0.0000 0.0000
vt 0.4172 0.6929 0.0000
# 84 texture coords

g Cylinder006
usemtl wire_008008136
s 8
f 1/1/1 2/2/2 3/3/2 4/4/1 
f 2/2/2 5/5/3 6/6/3 3/3/2 
f 5/5/3 7/7/4 8/8/4 6/6/3 
f 9/9/5 10/10/6 11/11/7 12/12/5 
f 10/10/6 13/13/8 14/14/8 11/11/7 
f 13/13/8 15/15/9 16/16/9 14/14/8 
f 15/15/9 17/17/10 18/18/10 16/16/9 
f 17/17/10 19/19/11 20/20/11 18/18/10 
f 19/19/11 21/21/12 22/22/12 20/20/11 
f 21/21/12 23/23/13 24/24/13 22/22/12 
f 23/23/13 25/25/14 26/26/14 24/24/13 
f 25/25/14 27/27/15 28/28/15 26/26/14 
f 27/27/15 29/29/16 30/30/16 28/28/15 
f 29/29/16 31/31/17 32/32/17 30/30/16 
f 31/31/17 33/33/18 34/34/18 32/32/17 
f 33/33/18 1/1/1 4/4/1 34/34/18 
s 1
f 31/35/19 29/36/19 27/37/19 1/38/19 
f 27/37/19 25/39/19 23/40/19 19/41/19 
f 23/40/19 21/42/19 19/41/19 
f 19/41/19 17/43/19 15/44/19 35/45/19 
f 13/46/19 10/47/19 9/48/19 35/45/19 
f 15/44/19 13/46/19 35/45/19 
f 27/37/19 19/41/19 35/45/19 1/38/19 
f 36/49/19 7/50/19 5/51/19 37/52/19 
f 35/45/19 37/52/19 5/51/19 1/38/19 
f 5/51/19 2/53/19 1/38/19 
f 33/54/19 31/35/19 1/38/19 
s 8
f 36/55/20 38/56/20 8/8/4 7/7/4 
s 1
f 39/57/21 12/58/22 11/59/22 14/60/22 
f 40/61/23 39/57/21 14/60/22 18/62/21 
f 14/60/22 16/63/21 18/62/21 
f 18/62/21 20/64/21 22/65/21 26/66/21 
f 22/65/21 24/67/21 26/66/21 
f 40/61/23 18/62/21 26/66/21 34/68/24 
f 26/66/21 28/69/21 30/70/21 34/68/24 
f 30/70/21 32/71/21 34/68/24 
f 34/68/24 4/72/21 3/73/23 40/61/23 
f 40/61/23 3/73/23 6/74/23 8/75/23 
f 40/61/23 8/75/23 38/76/23 
s 64
f 35/77/25 9/78/25 12/79/25 39/80/26 
s 8
f 35/81/27 39/82/27 40/80/27 37/77/28 
s 16
f 36/83/29 37/81/10 40/82/29 38/84/29 
# 34 polygons - 8 triangles

