# 3ds Max Wavefront OBJ Exporter v0.97b - (c)2007 guruware
# File Created: 02.12.2019 21:14:40

mtllib glass.mtl

#
# object Cylinder006
#

v  5388.8779 326.0759 5243.4038
v  5156.5513 326.0759 3925.8149
v  5156.5513 4690.8970 3925.8149
v  5388.8779 4690.8970 5243.4038
v  4487.5938 326.0759 2767.1462
v  4487.5938 4690.8970 2767.1462
v  3462.6914 326.0759 1907.1511
v  3462.6914 4690.8970 1907.1511
v  -389.6815 326.0759 1907.1514
v  -1414.5837 326.0759 2767.1462
v  -1414.5837 4690.8970 2767.1462
v  -389.6815 4690.8970 1907.1514
v  -2083.5410 326.0759 3925.8145
v  -2083.5410 4690.8970 3925.8145
v  -2315.8674 326.0759 5243.4033
v  -2315.8674 4690.8970 5243.4033
v  -2083.5413 326.0759 6560.9922
v  -2083.5413 4690.8970 6560.9922
v  -1414.5842 326.0759 7719.6602
v  -1414.5842 4690.8970 7719.6602
v  -389.6824 326.0759 8579.6553
v  -389.6824 4690.8970 8579.6553
v  867.5460 326.0759 9037.2500
v  867.5460 4690.8970 9037.2500
v  2205.4607 326.0759 9037.2510
v  2205.4607 4690.8970 9037.2510
v  3462.6895 326.0759 8579.6582
v  3462.6895 4690.8970 8579.6582
v  4487.5918 326.0759 7719.6631
v  4487.5918 4690.8970 7719.6631
v  5156.5503 326.0759 6560.9951
v  5156.5503 4690.8970 6560.9951
v  5084.0767 4690.8965 6534.6172
v  5311.7529 4690.8965 5243.4038
v  5084.0776 4690.8965 3952.1929
v  4428.5127 4690.8965 2816.7209
v  3424.1287 4690.8965 1973.9429
v  -1355.5029 4690.8965 2816.7209
v  -351.1193 4690.8965 1973.9431
v  -2011.0679 4690.8965 3952.1929
v  -2238.7429 4690.8965 5243.4033
v  -2011.0679 4690.8965 6534.6138
v  -1355.5034 4690.8965 7670.0859
v  -351.1200 4690.8965 8512.8633
v  880.9385 4690.8965 8961.2969
v  2192.0681 4690.8965 8961.2979
v  3424.1272 4690.8965 8512.8652
v  4428.5107 4690.8965 7670.0884
v  4428.5127 326.0759 2816.7207
v  3424.1287 326.0759 1973.9429
v  5084.0776 326.0759 3952.1929
v  5311.7529 326.0759 5243.4038
v  5084.0767 326.0759 6534.6172
v  -1355.5029 326.0759 2816.7209
v  -351.1193 326.0759 1973.9431
v  -2238.7429 326.0759 5243.4033
v  -2011.0679 326.0759 3952.1929
v  -1355.5034 326.0759 7670.0859
v  -2011.0679 326.0759 6534.6143
v  -351.1200 326.0759 8512.8633
v  880.9387 326.0759 8961.2969
v  3424.1272 326.0759 8512.8652
v  2192.0681 326.0759 8961.2979
v  4428.5107 326.0759 7670.0879
v  2760.4233 326.0759 1732.3738
v  2760.4233 4690.8965 1732.3738
v  2760.4233 326.0759 1651.5464
v  2760.4233 4690.8970 1651.5464
v  293.8846 326.0759 1739.1809
v  293.8846 4690.8965 1739.1809
v  293.8846 326.0759 1658.3535
v  293.8846 4690.8970 1658.3535
# 72 vertices

vn 1.0000 0.0000 0.0000
vn 0.9397 0.0000 -0.3420
vn 0.7660 0.0000 -0.6428
vn 0.5000 0.0000 -0.8660
vn -0.5000 0.0000 -0.8660
vn -0.7660 0.0000 -0.6428
vn -0.9397 0.0000 -0.3420
vn -1.0000 0.0000 -0.0000
vn -0.9397 0.0000 0.3420
vn -0.7660 0.0000 0.6428
vn -0.5000 0.0000 0.8660
vn -0.1736 0.0000 0.9848
vn 0.1736 0.0000 0.9848
vn 0.5000 0.0000 0.8660
vn 0.7660 0.0000 0.6428
vn 0.9397 0.0000 0.3420
vn -0.0000 1.0000 -0.0000
vn -0.0000 1.0000 0.0000
vn 0.0000 1.0000 0.0000
vn 0.0000 1.0000 -0.0000
vn 0.0000 -1.0000 -0.0000
vn -0.9397 -0.0000 0.3420
vn -1.0000 -0.0000 -0.0000
vn -0.7660 -0.0000 0.6428
vn -0.5000 -0.0000 0.8660
vn 0.7660 -0.0000 0.6428
vn 0.9397 -0.0000 0.3420
vn 1.0000 -0.0000 0.0000
vn 0.9397 -0.0000 -0.3420
vn 0.1736 0.0000 -0.9848
vn -0.1736 0.0000 -0.9848
vn -0.3420 0.0000 0.9397
vn 0.3420 0.0000 -0.9397
vn 0.3420 0.0000 0.9397
vn -0.3420 0.0000 -0.9397
vn 1.0000 0.0000 -0.0000
# 36 vertex normals

vt 0.7500 0.0000 1.0000
vt 0.8056 0.0000 1.0000
vt 0.8056 1.0000 1.0000
vt 0.7500 1.0000 1.0000
vt 0.8611 0.0000 1.0000
vt 0.8611 1.0000 1.0000
vt 0.9167 0.0000 1.0000
vt 0.9167 1.0000 1.0000
vt 0.0833 0.0000 1.0000
vt 0.1389 0.0000 1.0000
vt 0.1389 1.0000 1.0000
vt 0.0833 1.0000 1.0000
vt 0.1944 0.0000 1.0000
vt 0.1944 1.0000 1.0000
vt 0.2500 0.0000 1.0000
vt 0.2500 1.0000 1.0000
vt 0.3056 0.0000 1.0000
vt 0.3056 1.0000 1.0000
vt 0.3611 0.0000 1.0000
vt 0.3611 1.0000 1.0000
vt 0.4167 0.0000 1.0000
vt 0.4167 1.0000 1.0000
vt 0.4722 0.0000 1.0000
vt 0.4722 1.0000 1.0000
vt 0.5278 0.0000 1.0000
vt 0.5278 1.0000 1.0000
vt 0.5833 0.0000 1.0000
vt 0.5833 1.0000 1.0000
vt 0.6389 0.0000 1.0000
vt 0.6389 1.0000 1.0000
vt 0.6944 0.0000 1.0000
vt 0.6944 1.0000 1.0000
vt 0.6676 0.9604 0.2500
vt 0.6710 0.9698 0.2500
vt 0.5000 1.0000 0.2500
vt 0.5000 0.9900 0.2500
vt 0.3290 0.9698 0.2500
vt 0.3324 0.9604 0.2500
vt 0.1786 0.8830 0.2500
vt 0.1850 0.8754 0.2500
vt 0.0670 0.7500 0.2500
vt 0.0757 0.7450 0.2500
vt 0.0670 0.2500 0.2500
vt 0.1786 0.1170 0.2500
vt 0.1850 0.1246 0.2500
vt 0.0757 0.2550 0.2500
vt 0.3290 0.0302 0.2500
vt 0.3324 0.0396 0.2500
vt 0.5000 0.0000 0.2500
vt 0.5000 0.0100 0.2500
vt 0.6710 0.0302 0.2500
vt 0.6676 0.0396 0.2500
vt 0.8214 0.1170 0.2500
vt 0.8150 0.1246 0.2500
vt 0.9330 0.2500 0.2500
vt 0.9243 0.2550 0.2500
vt 0.9924 0.4132 0.2500
vt 0.9825 0.4149 0.2500
vt 0.9924 0.5868 0.2500
vt 0.9825 0.5851 0.2500
vt 0.9330 0.7500 0.2500
vt 0.9243 0.7450 0.2500
vt 0.8214 0.8830 0.2500
vt 0.8150 0.8754 0.2500
vt 0.1850 0.8754 -0.2500
vt 0.0757 0.7450 -0.2500
vt 0.0670 0.7500 -0.2500
vt 0.1786 0.8830 -0.2500
vt 0.7500 0.7866 1.0000
vt 0.8056 0.7866 1.0000
vt 0.8056 0.2134 1.0000
vt 0.7500 0.2134 1.0000
vt 0.6944 0.2134 1.0000
vt 0.6944 0.7866 1.0000
vt 0.8611 0.2134 1.0000
vt 0.8611 0.7866 1.0000
vt 0.9167 0.7866 1.0000
vt 0.9167 0.2134 1.0000
vt 0.0833 0.7866 1.0000
vt 0.1389 0.7866 1.0000
vt 0.1389 0.2134 1.0000
vt 0.0833 0.2134 1.0000
vt 0.1944 0.7866 1.0000
vt 0.2500 0.7866 1.0000
vt 0.2500 0.2134 1.0000
vt 0.1944 0.2134 1.0000
vt 0.3056 0.7866 1.0000
vt 0.3611 0.7866 1.0000
vt 0.3611 0.2134 1.0000
vt 0.3056 0.2134 1.0000
vt 0.4167 0.2134 1.0000
vt 0.4167 0.7866 1.0000
vt 0.4722 0.7866 1.0000
vt 0.4722 0.2134 1.0000
vt 0.5278 0.7866 1.0000
vt 0.5833 0.7866 1.0000
vt 0.5833 0.2134 1.0000
vt 0.5278 0.2134 1.0000
vt 0.6389 0.2134 1.0000
vt 0.6389 0.7866 1.0000
vt 0.9466 0.2134 1.0000
vt 0.9466 0.7866 1.0000
vt 0.9477 0.0000 1.0000
vt 0.9477 1.0000 1.0000
vt 0.0443 0.6589 0.2500
vt 0.0338 0.6589 0.2500
vt 0.0542 0.2134 1.0000
vt 0.0542 0.7866 1.0000
vt 0.0531 0.0000 1.0000
vt 0.0531 1.0000 1.0000
vt 0.0452 0.3387 0.2500
vt 0.0347 0.3387 0.2500
vt 0.4172 0.0000 0.0000
vt 0.3525 0.0000 0.0000
vt 0.3525 0.6929 0.0000
vt 0.4172 0.6929 0.0000
vt 0.6529 0.6929 0.0000
vt 0.6529 0.0000 0.0000
vt 0.5882 0.0000 0.0000
vt 0.5882 0.6929 0.0000
vt 0.0452 0.3387 -0.2500
vt 0.0757 0.2550 -0.2500
vt 0.0670 0.2500 -0.2500
vt 0.0347 0.3387 -0.2500
vt 0.0443 0.6589 -0.2500
vt 0.0338 0.6589 -0.2500
vt 0.1850 0.1246 -0.2500
vt 0.1786 0.1170 -0.2500
vt 0.3324 0.0396 -0.2500
vt 0.3290 0.0302 -0.2500
vt 0.5000 0.0100 -0.2500
vt 0.5000 -0.0000 -0.2500
vt 0.6676 0.0396 -0.2500
vt 0.6710 0.0302 -0.2500
vt 0.8150 0.1246 -0.2500
vt 0.8214 0.1170 -0.2500
vt 0.9243 0.2550 -0.2500
vt 0.9330 0.2500 -0.2500
vt 0.9825 0.4149 -0.2500
vt 0.9924 0.4132 -0.2500
vt 0.9825 0.5851 -0.2500
vt 0.9924 0.5868 -0.2500
vt 0.9243 0.7450 -0.2500
vt 0.9330 0.7500 -0.2500
vt 0.8150 0.8754 -0.2500
vt 0.8214 0.8830 -0.2500
vt 0.6676 0.9604 -0.2500
vt 0.6710 0.9698 -0.2500
vt 0.5000 0.9900 -0.2500
vt 0.5000 1.0000 -0.2500
vt 0.3324 0.9604 -0.2500
vt 0.3290 0.9698 -0.2500
# 152 texture coords

g Cylinder006
usemtl wire_008008136
s 8
f 1/1/1 2/2/2 3/3/2 4/4/1 
f 2/2/2 5/5/3 6/6/3 3/3/2 
f 7/7/4 8/8/4 6/6/3 5/5/3 
f 9/9/5 10/10/6 11/11/6 12/12/5 
f 10/10/6 13/13/7 14/14/7 11/11/6 
f 13/13/7 15/15/8 16/16/8 14/14/7 
f 17/17/9 18/18/9 16/16/8 15/15/8 
f 17/17/9 19/19/10 20/20/10 18/18/9 
f 19/19/10 21/21/11 22/22/11 20/20/10 
f 21/21/11 23/23/12 24/24/12 22/22/11 
f 23/23/12 25/25/13 26/26/13 24/24/12 
f 25/25/13 27/27/14 28/28/14 26/26/13 
f 29/29/15 30/30/15 28/28/14 27/27/14 
f 29/29/15 31/31/16 32/32/16 30/30/15 
f 1/1/1 4/4/1 32/32/16 31/31/16 
s 1
f 33/33/17 32/34/17 4/35/17 34/36/17 
f 4/35/17 3/37/18 35/38/18 34/36/17 
f 35/38/18 3/37/18 6/39/18 36/40/18 
f 36/40/18 6/39/18 8/41/18 37/42/18 
f 12/43/19 11/44/19 38/45/19 39/46/19 
f 11/44/19 14/47/19 40/48/19 38/45/19 
f 40/48/19 14/47/19 16/49/19 41/50/20 
f 41/50/20 16/49/19 18/51/20 42/52/20 
f 18/51/20 20/53/20 43/54/20 42/52/20 
f 43/54/20 20/53/20 22/55/20 44/56/20 
f 22/55/20 24/57/20 45/58/20 44/56/20 
f 24/57/20 26/59/17 46/60/17 45/58/20 
f 46/60/17 26/59/17 28/61/17 47/62/17 
f 28/61/17 30/63/17 48/64/17 47/62/17 
f 48/64/17 30/63/17 32/34/17 33/33/17 
f 49/65/21 50/66/21 7/67/21 5/68/21 
s 8
f 34/69/8 35/70/9 51/71/22 52/72/23 
f 53/73/7 33/74/7 34/69/8 52/72/23 
f 49/75/24 36/76/24 37/77/25 50/78/11 
f 51/71/22 35/70/9 36/76/24 49/75/24 
f 39/79/14 38/80/26 54/81/15 55/82/14 
f 40/83/27 41/84/28 56/85/28 57/86/27 
f 38/80/26 40/83/27 57/86/27 54/81/15 
f 42/87/2 43/88/3 58/89/3 59/90/29 
f 56/85/28 41/84/28 42/87/2 59/90/29 
f 60/91/4 44/92/4 45/93/30 61/94/30 
f 43/88/3 44/92/4 60/91/4 58/89/3 
f 46/95/31 47/96/5 62/97/5 63/98/31 
f 61/94/30 45/93/30 46/95/31 63/98/31 
f 33/74/7 53/73/7 64/99/6 48/100/6 
f 62/97/5 47/96/5 48/100/6 64/99/6 
f 65/101/32 50/78/11 37/77/25 66/102/32 
f 7/7/4 67/103/33 68/104/33 8/8/4 
s 1
f 66/105/18 37/42/18 8/41/18 68/106/18 
s 8
f 39/79/14 55/82/14 69/107/34 70/108/34 
f 71/109/35 9/9/5 12/12/5 72/110/35 
s 1
f 12/43/19 39/46/19 70/111/19 72/112/19 
s 2
f 67/113/8 65/114/8 66/115/8 68/116/8 
f 70/117/36 69/118/36 71/119/36 72/120/36 
s 1
f 69/121/21 55/122/21 9/123/21 71/124/21 
f 7/67/21 50/66/21 65/125/21 67/126/21 
f 55/122/21 54/127/21 10/128/21 9/123/21 
f 54/127/21 57/129/21 13/130/21 10/128/21 
f 57/129/21 56/131/21 15/132/21 13/130/21 
f 56/131/21 59/133/21 17/134/21 15/132/21 
f 59/133/21 58/135/21 19/136/21 17/134/21 
f 58/135/21 60/137/21 21/138/21 19/136/21 
f 60/137/21 61/139/21 23/140/21 21/138/21 
f 61/139/21 63/141/21 25/142/21 23/140/21 
f 63/141/21 62/143/21 27/144/21 25/142/21 
f 62/143/21 64/145/21 29/146/21 27/144/21 
f 64/145/21 53/147/21 31/148/21 29/146/21 
f 53/147/21 52/149/21 1/150/21 31/148/21 
f 52/149/21 51/151/21 2/152/21 1/150/21 
f 51/151/21 49/65/21 5/68/21 2/152/21 
# 70 polygons

